solid OpenSCAD_Model
  facet normal 0 -0 -1
    outer loop
      vertex 0 1.73205 0
      vertex 1 0 0
      vertex -1 0 0
    endloop
  endfacet
  facet normal 0.816496 0.471405 0.333334
    outer loop
      vertex 1 0 0
      vertex 0 1.73205 0
      vertex 0 0.57735 1.63299
    endloop
  endfacet
  facet normal 0 -0.942809 0.333334
    outer loop
      vertex -1 0 0
      vertex 1 0 0
      vertex 0 0.57735 1.63299
    endloop
  endfacet
  facet normal -0.816496 0.471405 0.333334
    outer loop
      vertex 0 1.73205 0
      vertex -1 0 0
      vertex 0 0.57735 1.63299
    endloop
  endfacet
endsolid OpenSCAD_Model
