solid OpenSCAD_Model
  facet normal 0 -0 -1
    outer loop
      vertex 0 1.73205 0.01
      vertex 1 0 0.01
      vertex -1 0 0.01
    endloop
  endfacet
  facet normal 0 1 -0
    outer loop
      vertex 1 0 -0.01
      vertex -1 0 0.01
      vertex 1 0 0.01
    endloop
  endfacet
  facet normal 0 1 0
    outer loop
      vertex -1 0 0.01
      vertex 1 0 -0.01
      vertex -1 0 -0.01
    endloop
  endfacet
  facet normal -0.866025 -0.5 0
    outer loop
      vertex 1 0 -0.01
      vertex 0 1.73205 0.01
      vertex 0 1.73205 -0.01
    endloop
  endfacet
  facet normal -0.866025 -0.5 0
    outer loop
      vertex 0 1.73205 0.01
      vertex 1 0 -0.01
      vertex 1 0 0.01
    endloop
  endfacet
  facet normal 0.866025 -0.5 0
    outer loop
      vertex -1 0 0.01
      vertex 0 1.73205 -0.01
      vertex 0 1.73205 0.01
    endloop
  endfacet
  facet normal 0.866025 -0.5 0
    outer loop
      vertex 0 1.73205 -0.01
      vertex -1 0 0.01
      vertex -1 0 -0.01
    endloop
  endfacet
  facet normal 0 0 1
    outer loop
      vertex -1 0 -0.01
      vertex 1 0 -0.01
      vertex 0 1.73205 -0.01
    endloop
  endfacet
endsolid OpenSCAD_Model
